<?xml version="1.0" encoding="utf-8"?>
<!-- Generator: Adobe Illustrator 19.2.1, SVG Export Plug-In . SVG Version: 6.00 Build 0)  -->
<svg version="1.1" id="图层_1" xmlns="http://www.w3.org/2000/svg" xmlns:xlink="http://www.w3.org/1999/xlink" x="0px" y="0px"
	 viewBox="0 0 400 600" style="enable-background:new 0 0 400 600;" xml:space="preserve">
<g>
	<g>
		<path d="M69.6,150.8c1.4,26.7-2.6,53.1-5.1,79.6c-2.5,26.8-3.6,53.8-3.9,80.7c-0.3,26.6,0.1,53.3,0.5,79.9
			c0.1,4.1-0.7,9.6,1.3,13.4c2.4,4.5,8.4,6.5,12.7,8.5c10.3,4.8,21.1,8.7,32.1,11.6c50.3,13,100.4-0.7,150.9-4.4
			c6-0.4,12-0.7,18-0.8c4.5-0.1,10,0.7,14.3-1.4c3.6-1.8,5.5-5.3,6.9-8.9c2.2-5.8,3.8-12,5.2-18c5.4-23.5,6.1-47.9,4.7-71.9
			c-3.6-58.9-20.7-116.9-15.3-176.3c0.1-0.6-0.5-1.3-1.1-1.4c-18.4-5-37.9-5-56.8-6.1c-20.3-1.2-40.5-2.4-60.8-3.6
			c-33.4-2-70.6-6.7-100.5,11.7c-1.6,1-0.1,3.6,1.5,2.6c30-18.4,67.6-13.1,101-11.2c18.9,1.1,37.9,2.3,56.8,3.4
			c19.3,1.2,39.2,1,58,6.1c-0.4-0.5-0.7-1-1.1-1.4c-4.6,50.1,6.9,99.4,12.8,148.9c2.8,23.3,4.3,46.9,2.3,70.4
			c-1,12.2-3.1,24.3-6.3,36.2c-1.4,4.9-2.6,12.3-6.5,15.8c-4.5,4.1-14,2.3-19.6,2.4c-48.7,1.5-97.1,16.3-145.9,8.8
			c-11.1-1.7-22.1-4.5-32.7-8.3c-5.5-1.9-10.8-4.1-16.1-6.6c-2.5-1.2-5.4-2.3-7.7-3.9c-4.2-2.8-4.6-6-4.7-10.5
			c-0.5-25.3-0.9-50.6-0.7-76c0.2-28.3,1.1-56.5,3.6-84.7c2.5-28.1,7-56.2,5.5-84.5C72.5,148.9,69.5,148.9,69.6,150.8L69.6,150.8z"
			/>
	</g>
</g>
<g>
	<g>
		<path d="M101.4,159.7c-0.3,7-0.6,14-1,21.1c-0.2,4.2-1.9,10.7,1.7,13.9c3.1,2.8,9.7,3.2,13.5,4.1c6.9,1.6,13.9,3.1,20.9,4.5
			c26.5,5.2,53.3,8.5,80.2,9.9c6.8,0.3,13.6,0.6,20.4,0.7c3.6,0.1,8.4,0.8,10.6-2.7c2.3-3.7,1.9-9.9,2.3-14
			c0.7-7.2,1.1-14.4,1.2-21.6c0.1-3.7,1.1-9.6-1.2-12.9c-2.7-3.9-10.3-5.5-14.5-6.6c-12.1-3-24.8-2.9-37.2-3.4
			c-31.4-1.2-62.8-2-94.2-0.3c-1.9,0.1-1.9,3.1,0,3c23.5-1.3,47.1-1.2,70.7-0.5c11.7,0.3,23.4,0.8,35.1,1.3
			c10.9,0.5,22.1,1.1,32.3,5.2c4.1,1.7,5.9,2.8,6.1,7.4c0.1,2.9,0,5.9,0,8.9c-0.1,5.9-0.5,11.8-1,17.7c-0.3,2.9-0.6,5.9-0.9,8.8
			c-0.6,4.9-2.6,7-7.3,6.9c-5.8,0-11.6-0.2-17.4-0.5c-23.8-1-47.5-3.5-70.9-7.5c-12.7-2.2-25.4-4.8-38-7.8c-3.7-0.9-8.8-1.1-9.6-5.8
			c-0.5-2.8,0.3-6.5,0.4-9.4c0.3-6.7,0.6-13.4,0.9-20.1C104.4,157.8,101.4,157.8,101.4,159.7L101.4,159.7z"/>
	</g>
</g>
<g>
	<g>
		<path d="M122.2,273.5c12.4-4.9,26.6-3.4,39.7-3.2c13.8,0.2,27.7,0.7,41.5,1.5c1.9,0.1,1.9-2.9,0-3c-14.5-0.8-28.9-1.3-43.4-1.5
			c-12.8-0.2-26.4-1.4-38.5,3.4C119.6,271.3,120.4,274.2,122.2,273.5L122.2,273.5z"/>
	</g>
</g>
<g>
	<g>
		<path d="M129.3,301.8c24.4-1.7,48.6,5.9,73,2.1c1.9-0.3,1.1-3.2-0.8-2.9c-24.1,3.7-48.1-4-72.2-2.3
			C127.4,298.9,127.4,301.9,129.3,301.8L129.3,301.8z"/>
	</g>
</g>
<g>
	<g>
		<path d="M137.6,341.8c33,3.5,66.1,5.9,99.3,7.3c1.9,0.1,1.9-2.9,0-3c-33.2-1.4-66.3-3.8-99.3-7.3
			C135.7,338.6,135.7,341.6,137.6,341.8L137.6,341.8z"/>
	</g>
</g>
</svg>
