<?xml version="1.0" encoding="utf-8"?>
<!-- Generator: Adobe Illustrator 19.2.1, SVG Export Plug-In . SVG Version: 6.00 Build 0)  -->
<svg version="1.1" id="图层_1" xmlns="http://www.w3.org/2000/svg" xmlns:xlink="http://www.w3.org/1999/xlink" x="0px" y="0px"
	 viewBox="0 0 400 600" style="enable-background:new 0 0 400 600;" xml:space="preserve">
<style type="text/css">
	.st0{fill:#FFFFFF;stroke:#000000;stroke-miterlimit:10;}
</style>
<path class="st0" d="M115.7,167.7c38.7-46.7,124.5-44.5,162,6c25.9,34.9,25.5,88.4-2.7,120.7c-41.8,48.1-133.8,36.4-166.7-18
	C88.8,244,90.8,197.7,115.7,167.7z"/>
<path class="st0" d="M150.3,289.3c34.2,19.8,72.8,17.1,94-4c13.7-13.6,16.6-31.3,17.3-40"/>
<path class="st0" d="M135.7,207c3.5-9.6,12.1-16.4,22-17.3c11.1-1.1,22,5.4,26.7,16"/>
<path class="st0" d="M209.7,201.3c0.6-1.6,5.7-14.1,18-17.3c12.6-3.3,27.6,4.3,34,19.3"/>
<g>
	<g>
		<path d="M128.4,161.3c6.8,8.9,18.9,12.8,29.7,9.4c2.6-0.8,5.1-2.1,7.3-3.7c3.5-2.6,7.9-8.6,12.8-7.8c4.3,0.7,5.5,5,8.8,7.1
			c2,1.3,4.4,1.9,6.7,2c6.2,0.2,11.5-2.8,16.3-6.4c3.6-2.7,7.8-6.1,12.6-5.1c4.1,0.9,4.5,4.9,7.8,6.8c4.9,2.8,10.3-1.2,15.3-1.2
			c3.4,0,6.3,2.6,9.7,3c3.4,0.5,6.6-0.4,9.5-2.2c1.7-1,0.2-3.6-1.5-2.6c-5.2,3.1-8.3,1.4-13.3-0.4c-2-0.7-3.8-1-6-0.7
			c-3.2,0.4-6.4,2.1-9.6,2c-3.8-0.2-4.5-3.9-7-5.9c-10-8.1-20.8,7.5-30.1,9.3c-3.8,0.7-7.7,0.2-10.5-2.7c-1.9-2-2.8-4.4-5.5-5.5
			c-5.2-2.2-10.1,1.3-13.9,4.5c-5.6,4.8-11,7.9-18.7,7.5c-6.9-0.4-13.5-3.6-17.7-9.1C129.9,158.2,127.2,159.7,128.4,161.3
			L128.4,161.3z"/>
	</g>
</g>
</svg>
