<?xml version="1.0" encoding="utf-8"?>
<!-- Generator: Adobe Illustrator 19.2.1, SVG Export Plug-In . SVG Version: 6.00 Build 0)  -->
<svg version="1.1" id="图层_1" xmlns="http://www.w3.org/2000/svg" xmlns:xlink="http://www.w3.org/1999/xlink" x="0px" y="0px"
	 viewBox="0 0 595.3 841.9" style="enable-background:new 0 0 595.3 841.9;" xml:space="preserve">
<path d="M288.1,295.7c-13-14.7-34.7-11.9-49.9-2.4c-17.6,11-32.3,28.2-44.7,44.6c-13.4,17.8-24.2,37.5-31.6,58.5
	c-7.8,21.9-12.2,44.8-20.4,66.5c-4.5,12-10.2,24.6-19.2,34c-9.3,9.6-24.1,14.9-36.1,6.9c-2.7-1.8-5.2,2.5-2.5,4.3
	c17,11.4,37,0.3,47.7-14.3c13.3-18.2,19.4-41.3,25.3-62.6c6.2-22.3,12.8-44.2,24.1-64.5c11-19.8,25.1-37.7,41.2-53.5
	c8.9-8.7,18.7-17.4,30.8-21.1c11.1-3.4,23.9-1.7,31.8,7.3C286.7,301.7,290.3,298.1,288.1,295.7z"/>
<path d="M314.6,472.6c-23.6-8-36-31.8-39.7-55.1c-4.4-27.6-1-57,5.7-83.9c0.8-3.1-4-4.5-4.8-1.3c-7.2,28.8-10.7,60.6-5,90
	c4.6,23.9,18.6,46.9,42.6,55.1C316.4,478.5,317.7,473.7,314.6,472.6z"/>
<path d="M424,366.9c-12.3-17-16.1-37-17.7-57.8c0,0,0.1-0.1,0.1-0.1c1.4-1.2,0.8-2.9-0.4-3.7c-2.6-37.5,0.4-76.7-29.3-103.7
	c-10.3-9.4-23.5-15.4-37.7-14.7c-0.3,0-0.6,0.1-0.9,0.2c-27.4-24.1-57.2-49.1-94.7-53.4c-33.6-3.9-65.5,13.3-87.1,38.2
	c-24.2,27.9-36.1,64.2-45.2,99.4c-5,19.3-8.6,38.9-10,58.9c-1.4,21-0.9,42.1-1.5,63.1c-1.1,40-7.2,83.7-36.9,113.3
	c-2.3,2.3,1.3,5.8,3.5,3.5c54.5-54.2,31.5-139.2,43-207c3.2-18.7,8-37.3,13.7-55.4c5.4-17.4,12.1-34.5,21.3-50.3
	c17-29.1,45.1-54.7,79.8-58.8c44.5-5.2,81.3,26.2,112.3,53.5c1.3,1.1,2.8,0.7,3.7-0.3c27.4-0.8,47.1,24,54,48.3c0.8,2.6,1.4,5.3,2,8
	c-20.6-10.9-43.4-5.8-64.5,1.9c-3,1.1-1.7,5.9,1.3,4.8c20.6-7.5,43-13,63.1-1c0.4,0.2,0.8,0.3,1.2,0.4c1.9,11.5,2.5,23.2,3,34.9
	c-1.7-2.1-3.7-4-5.8-5.6c0.2-1.2-0.2-2.5-1.7-2.8c-1.4-0.4-2.8-0.7-4.2-0.9c-1.2-0.6-2.4-1.2-3.6-1.6c-1.2-0.5-2.2,0.1-2.6,0.9
	c-6-0.3-12,0.5-17.9,2.3c-3.1,1-1.8,5.8,1.3,4.8c7.1-2.2,14.2-2.8,21.4-1.6c4.7,2.5,8.7,6.2,11.6,10.8c0.5,0.8,1.2,1.1,1.9,1.1
	c0.2,3.5,0.3,6.9,0.6,10.4c-6.9,4.7-16.4,3.6-23.3-0.9c-8.2-5.4-13-14.5-16.9-23.2c-1.3-2.9-5.6-0.4-4.3,2.5
	c4.8,10.6,11.3,21.9,22.4,27c7.2,3.3,15.6,3.6,22.6,0.1c0.4,5.1,1,10.2,1.9,15.3c2.4,13.9,6.7,27.4,14.5,39.2
	c-11.2,3.9-22.6,8.8-29.2,19.2c-5.9,9.2-9,20.9-11.1,32.2c-14.4,9.5-33.3,4-40.1-12.2c-1.2-3-5.6-0.4-4.3,2.5
	c7.3,17.2,27.4,24,43.4,16.1c-0.3,1.9-0.6,3.9-0.8,5.7c-1.1,7.8-1.6,15.7-1.8,23.6c-0.2,8.5-1.7,15.5-10,19.5
	c-14.4,6.9-32.7,3.5-45.7-4.7c-2.7-1.7-5.2,2.6-2.5,4.3c12.3,7.8,27.2,10.7,41.5,7.8c6.2-1.3,12.6-3.8,16.7-8.7
	c4.6-5.3,4.8-12.3,5-19c0.3-17.7,3.1-35.3,8.6-52.2c2.7-8.3,6.4-15.7,13.7-20.9c6.4-4.5,13.9-7,21.2-9.5
	C423.9,370.1,425,368.3,424,366.9z"/>
<path d="M327.9,567.2c-4.9-12.5-20.2-14.1-31.4-10.3c-5,1.7-10.1,4-14.9,6.9c-0.1-3-4.9-3-5,0.2c0,1.1-0.1,2.1-0.1,3.2
	c-6.4,4.7-11.8,10.5-15,17.4c-1.3,2.9,3,5.4,4.3,2.5c2.4-5.2,6.2-9.7,10.6-13.5c0.2,11,1.7,22.4,9.2,30.7
	c9.3,10.4,24.3,5.5,32.9-3.2C326.8,592.9,332.3,578.6,327.9,567.2z M323.6,581.8c-1.3,6.2-4.5,11.9-9,16.3c-5.2,5-13.9,9.6-21,6.1
	c-11.5-5.5-12.3-22-12.1-34.3c4.6-3.1,9.7-5.7,14.7-7.6c6.6-2.6,14.3-3.8,20.8-0.2C324.2,566.2,325.2,574.3,323.6,581.8z"/>
<path d="M373.1,549.1c-12.5,10.1-18.5,24.8-22.6,39.9c-1.4-10.7-3.6-21.2-6.5-31.6c-0.9-3.1-5.7-1.8-4.8,1.3
	c4.1,14.8,6.7,29.8,7.8,45.1c0.2,2.7,4.3,3.6,4.9,0.7c4.1-18.8,8.9-39.2,24.6-51.9C379.2,550.6,375.6,547.1,373.1,549.1z"/>
<path d="M494.8,578c-11.3,5.6-22.9,10.5-34.8,14.8c-5.6,2-11.2,3.9-16.9,5.6c-2.7,0.8-11.8,4.8-15.6,3.4c6-8.1,14.2-14.1,22-20.3
	c5-4,17.4-12,11.8-19.9c-2.4-3.4-7.1-2.8-10.7-2.9c-6.3-0.1-12.6-0.3-18.9-0.4c-13.6-0.3-27.1-0.6-40.7-0.8c-3.2-0.1-3.2,4.9,0,5
	c10.6,0.2,21.2,0.4,31.8,0.7c5.3,0.1,10.6,0.2,15.9,0.3c2.6,0.1,5.3,0.1,7.9,0.2c2.2,0,7-0.7,8.9,0.2c5.3,2.8-3.8,9.5-6.4,11.6
	c-3.2,2.7-6.6,5.2-9.9,7.9c-6.5,5.2-12.5,10.7-17.2,17.7c-0.4,0.7-0.5,1.9,0,2.5c2.8,3.7,6.7,3.8,11,2.9c7.5-1.6,14.9-4.2,22.2-6.6
	c14.4-4.9,28.5-10.7,42.2-17.5C500.2,580.9,497.7,576.6,494.8,578z"/>
</svg>
