<?xml version="1.0" encoding="utf-8"?>
<!-- Generator: Adobe Illustrator 19.2.1, SVG Export Plug-In . SVG Version: 6.00 Build 0)  -->
<svg version="1.1" id="图层_1" xmlns="http://www.w3.org/2000/svg" xmlns:xlink="http://www.w3.org/1999/xlink" x="0px" y="0px"
	 viewBox="0 0 400 600" style="enable-background:new 0 0 400 600;" xml:space="preserve">
<style type="text/css">
	.st0{fill:none;stroke:#000000;stroke-miterlimit:10;}
</style>
<path class="st0" d="M148.4,206.5l120-0.2c52.2,0,94.5,80.9,94.5,180.8c-34.1,34.7-55.2,38.9-68.5,34.9c-18.1-5.4-17-24.4-41.1-39.7
	c-23-14.7-58.9-19.5-82.9-4.8c-25.9,15.9-21.1,44.1-41.1,50c-21,6.2-51.1-17.6-62.3-40.4c-33.9-69.2,41.2-185.2,84.9-180.8
	c19.4,1.9,24.9,27.1,53.4,31.5c22.2,3.4,42.6-8.3,56.2-18.5"/>
<g>
	<g>
		<path d="M111.9,300.2c-0.2-4.2,0.1-8.4,1.3-12.5c1-3.3,2.1-6.4,5.8-7.7c2.1-0.7,5.1-0.7,7.3-0.7c5.7,0.1,11.1,2.4,11.3,8.8
			c0.1,2.9-0.6,5.9,0.8,8.6c2.1,4.3,7.1,5.2,11.4,5.6c3.2,0.3,6.9,0.1,9.8,1.9c3.5,2.3,2.5,7.2-0.5,9.4c-2.4,1.8-5.2,2.2-8.2,2.3
			c-4.6,0.1-12.2-2.1-15.3,2.6c-1.2,1.8-1,3.8-0.7,5.8c0.8,4.8,2.1,8.8-1.6,12.9c-7.5,8.2-18.8-0.1-20.2-8.9
			c-0.7-4.5,2.3-10.9-3.1-13.4c-3-1.4-7-1-10.3-1.7c-3.6-0.8-7.2-2-10.2-4.4c-4.1-3.2-6.9-9.2-0.6-11.9c4.7-2,12.1-1.1,17.1-0.9
			c1.9,0.1,1.9-2.9,0-3c-5.9-0.3-12.1-0.3-17.9,1c-2.9,0.6-5.3,1.9-6,5c-1.6,6.6,4.8,12.4,10.1,14.9c3.5,1.6,7.3,2.4,11.1,2.9
			c3.9,0.5,6.1-0.4,6.7,5.4c0.2,2.2-0.3,4.3,0,6.6c1.3,7.6,7.1,14.1,15.1,14.4c7.1,0.3,13.3-5.2,13.7-12.3c0.1-2.2-0.7-3.9-0.9-6
			c-0.2-2.1-2.3-4.3,1.7-6.1c1.3-0.6,3.4-0.3,4.8-0.3c4.8,0.1,9.9,0.9,14.3-1.3c5.7-2.9,9-10.5,3.1-15c-2.7-2.1-6.4-2.5-9.7-2.8
			c-2.2-0.2-4.5-0.2-6.6-0.8c-5.4-1.6-5-6-5.1-10.6c-0.1-10.9-11.1-12.5-19.7-11.4c-4.5,0.6-6.9,1.7-9,5.9
			c-2.6,5.4-3.4,11.6-3.1,17.6C109,302.1,112,302.1,111.9,300.2L111.9,300.2z"/>
	</g>
</g>
<g>
	<g>
		<path d="M241.6,281.5c-2.1,7.4,2.2,15.3,9.4,18c7.9,2.9,16.9-1.5,21.3-8.3c10.9-17-19.5-34.2-30-18.2c-1.1,1.6,1.5,3.1,2.6,1.5
			c4.3-6.6,12.7-5.7,18.7-2.1c2.7,1.6,5.9,4,7.3,7c2.1,4.3,0.3,8.9-2.7,12.2c-3.7,4.2-9.7,6.9-15.2,5.4c-6.3-1.7-10.4-8.4-8.6-14.7
			C245,280.4,242.1,279.6,241.6,281.5L241.6,281.5z"/>
	</g>
</g>
<g>
	<g>
		<path d="M302.2,303.9c-8.7,1.4-17.2,7.2-18.1,16.6c-1,9.5,5.6,15.4,14.2,17.5c8.4,2.1,16.8-1.6,20.2-9.8c3.4-8.5-1-17.6-8.3-22.3
			c-1.6-1-3.1,1.6-1.5,2.6c6.2,3.9,9.9,11.6,7,18.7c-3.1,7.5-10.6,9.8-18,7.5c-7-2.1-11.9-7.4-10.3-15.1c1.5-7.6,8.7-11.7,15.8-12.8
			C304.9,306.4,304.1,303.6,302.2,303.9L302.2,303.9z"/>
	</g>
</g>
<g>
	<g>
		<path d="M254,276.8c-0.1,4.9-0.6,9.8-1.6,14.6c-0.4,1.9,2.5,2.7,2.9,0.8c1.1-5.1,1.6-10.2,1.7-15.4C257,274.9,254,274.9,254,276.8
			L254,276.8z"/>
	</g>
</g>
<g>
	<g>
		<path d="M256.6,278.2c4.2,2.8,7.5,6.5,9.8,11c0.9,1.7,3.5,0.2,2.6-1.5c-2.5-4.9-6.3-9-10.9-12.1
			C256.5,274.5,255,277.1,256.6,278.2L256.6,278.2z"/>
	</g>
</g>
<g>
	<g>
		<path d="M256.4,288.5c2.6,0.4,5.1,0.3,7.7-0.5c1.8-0.6,1.1-3.5-0.8-2.9c-2,0.6-4,0.8-6.1,0.5C255.3,285.3,254.5,288.2,256.4,288.5
			L256.4,288.5z"/>
	</g>
</g>
<g>
	<g>
		<path d="M291.6,315.4c2.6,4.1,4.3,8.4,5,13.2c0.3,1.9,3.2,1.1,2.9-0.8c-0.7-5-2.5-9.7-5.3-13.9
			C293.1,312.3,290.5,313.8,291.6,315.4L291.6,315.4z"/>
	</g>
</g>
<g>
	<g>
		<path d="M297.9,315.6c1.7-0.2,3.7-0.2,5.1,1c1.9,1.6,1.9,5.6-1.4,5.2c0,1,0,2,0,3c1.1-0.1,3.7-0.3,4.4,0.9c2.6,4-2.3,3.1-3.3,3.1
			c-1.6,0-2.8,0-4.2,0.9c-1.6,1-0.1,3.6,1.5,2.6c2-1.2,4.6,0.1,6.8-0.7c1.6-0.6,2.7-2,2.9-3.7c0.5-4.6-4.3-6.5-8.1-6.1
			c-1.9,0.2-1.9,2.8,0,3c3.7,0.4,6.5-3.4,5.8-6.9c-0.8-4.2-5.7-5.7-9.5-5.4C296,312.8,296,315.8,297.9,315.6L297.9,315.6z"/>
	</g>
</g>
</svg>
