<?xml version="1.0" encoding="utf-8"?>
<!-- Generator: Adobe Illustrator 19.2.1, SVG Export Plug-In . SVG Version: 6.00 Build 0)  -->
<svg version="1.1" id="图层_1" xmlns="http://www.w3.org/2000/svg" xmlns:xlink="http://www.w3.org/1999/xlink" x="0px" y="0px"
	 viewBox="0 0 595.3 841.9" style="enable-background:new 0 0 595.3 841.9;" xml:space="preserve">
<path d="M357.6,356.3c-1.2-0.8-2.3-0.4-3,0.4c0.2-0.7,0.5-1.5,0.7-2.2c5.2-18.9-3.5-39.5-20.5-49.1c3.1-3.7,5.6-7.7,6.6-11.7
	c2.2-8.2-4.2-13-11.5-14.4c-8-1.5-16.1-1.6-24.1-0.6c2.5-9.6,5.1-20.1,1.4-29.2c-3.1-7.9-11.3-13.5-19.8-11.4
	c-3.1,0.8-1.8,5.6,1.3,4.8c9-2.2,14.7,7.2,15.2,14.9c0.4,7.3-1.7,14.7-3.5,21.8c-7,1.3-14,3.3-20.8,5.8c4.6-2.9,8.8-6.4,11.6-11.1
	c4.7-7.8,3.2-16.6,1.1-25c-0.8-3.1-5.6-1.8-4.8,1.3c1.5,5.8,3,12,1,17.8c-1.7,5.1-6,9.1-10.4,12c-8.5,5.6-18.7,8.3-26.5,14.9
	c-5.7,4.8-11.7,13.5-9.4,21.4c0.2,0.7,0.5,1.2,0.8,1.7c-15.9,3.1-25.2,23.1-26.6,37.7c-0.7,7.8,0.1,16.8,5.4,22.9
	c-9.9,4.9-18.5,12-25.2,20.9c-6.9,9.3-13.4,22-9,33.7c4.3,11.4,16.4,19.3,26.4,25.3c11.2,6.8,23.5,11.8,36.2,15.2
	c47.3,12.4,112.4,1.3,129.2-51.8C387,398.5,378.9,370.5,357.6,356.3z M251.8,302.2c2-2.3,4.3-4.1,6.8-5.7c0.5,1.3,2,2.3,3.6,1.6
	c11.9-5.5,24.5-10.6,37.5-13.1c0.8,1.9,4.1,2.4,4.7-0.2c0-0.2,0.1-0.4,0.2-0.6c3.7-0.5,7.5-0.9,11.3-0.9c4.5,0,9.1,0.2,13.5,1.1
	c2.1,0.4,4.7,0.9,6.1,2.6c2.4,2.7,1.1,6.3-0.5,9.1c-4.2,7.6-12.1,15.4-19.4,19.9c-15.7,9.7-35.2,8.1-52.5,4.5c-4-0.8-9.3-1.2-13.1-3
	C243.6,314.2,248.5,306,251.8,302.2z M248.1,323.1c0.8,0,1.3-0.2,1.7-0.6c5.8,1.6,11.8,2.8,17.8,3.9c19.1,3.4,40.3,3,56-10
	c2.4-2,5.2-4.5,7.8-7.2c0.1,0.1,0.2,0.1,0.3,0.2c13.3,7.2,21.4,22.1,20,37.2c-1.5,16.5-13.7,30.5-29.2,35.7
	c-16.5,5.4-35.4,3.9-52.5,3.3c-9.7-0.4-19.5-1-29.1-2.8c-8.8-1.6-16.8-5-19-14.5C218.3,352.3,228,322.4,248.1,323.1z M376.1,415.4
	c-4.6,21.5-20.7,38.9-40,48.4c-22.1,10.9-48.2,12.4-72.2,8.3c-22.8-3.9-46.4-13.2-63.5-29.1c-5.1-4.7-9.5-10.6-9.3-17.8
	c0.1-7,3.8-13.8,7.6-19.5c6.7-10.1,16.2-17.9,27.1-23c6.8,4.5,15.8,5.4,23.6,6.3c12,1.4,24.2,1.7,36.2,1.8c10.6,0.1,21.3,0.2,31.6-2
	c16.5-3.5,30.6-14.4,36.6-30.1c0,0.7,0.4,1.5,1.1,2C372.6,372.3,380.5,395.1,376.1,415.4z"/>
<path d="M260.2,196.5c-4.7-10.3-10.4-22.8-2.9-33.2c1.9-2.6-2.5-5.1-4.3-2.5c-15.4,21.5,13.8,42.5,7.7,64.5c-0.9,3.1,4,4.4,4.8,1.3
	C268.4,216.1,264.6,206.1,260.2,196.5z"/>
<path d="M344,192.5c-6.4-8.8-23.6-24.4-11-35.3c2.4-2.1-1.1-5.6-3.5-3.5c-9.2,8-5.6,21,0.6,29.5c4.2,5.7,9.5,10.6,12.7,16.9
	c4.3,8.4,1.6,16.2-3.1,23.7c-1.7,2.7,2.6,5.3,4.3,2.5c3.1-5,5.8-10.4,6.1-16.3C350.6,203.5,347.7,197.6,344,192.5z"/>
<path d="M295.7,122.4c-3.6,9.7-5.2,20-4.3,30.3c0.9,9.5,5.1,20.4-0.5,29.2c-1.7,2.7,2.6,5.2,4.3,2.5c5-7.9,3.4-16.9,2-25.6
	c-2-12-1-23.6,3.2-35C301.6,120.7,296.8,119.4,295.7,122.4z"/>
</svg>
