<?xml version="1.0" encoding="utf-8"?>
<!-- Generator: Adobe Illustrator 16.0.0, SVG Export Plug-In . SVG Version: 6.00 Build 0)  -->
<!DOCTYPE svg PUBLIC "-//W3C//DTD SVG 1.1//EN" "http://www.w3.org/Graphics/SVG/1.1/DTD/svg11.dtd">
<svg version="1.1" id="Layer_1" xmlns="http://www.w3.org/2000/svg" xmlns:xlink="http://www.w3.org/1999/xlink" x="0px" y="0px"
	 width="126px" height="126px" viewBox="0 0 126 126" enable-background="new 0 0 126 126" xml:space="preserve">
<path stroke="#6D6E70" stroke-width="0" stroke-linecap="round" stroke-linejoin="round" d="M100.515,100.512
	c20.686-20.684,20.684-54.341,0.002-75.024C79.829,4.799,46.17,4.799,25.486,25.483C4.798,46.169,4.8,79.829,25.488,100.517
	C46.17,121.201,79.829,121.201,100.515,100.512z M31.272,31.27c17.494-17.493,45.96-17.495,63.457,0.002
	c17.494,17.494,17.492,45.962-0.002,63.455c-17.493,17.494-45.961,17.496-63.455,0.002C13.774,77.233,13.777,48.764,31.272,31.27z
	 M63.071,92.742c11.245,0,21.28-7.315,25.563-18.636c0.191-0.506,0.148-1.089-0.117-1.55s-0.715-0.739-1.197-0.74l-48.638-0.068
	c0,0-0.001,0-0.002,0c-0.479,0-0.926,0.273-1.191,0.729c-0.267,0.455-0.316,1.033-0.132,1.54
	C41.491,85.391,51.585,92.742,63.071,92.742z M82.104,74.518l2.469,0.002c0.43,0.001,0.828,0.202,1.065,0.534
	c0.235,0.333,0.274,0.754,0.104,1.119c-0.533,1.144-1.178,2.225-1.9,3.249h-1.738V74.518z M51.859,87.338
	c-2.64-1.154-5.017-2.712-7.013-4.615h7.013V87.338z M68.761,74.502l9.785,0.012v4.908h-9.785V74.502z M68.761,82.723h9.785v2.016
	c-2.835,2.045-6.17,3.52-9.785,4.283V82.723z M55.418,74.488l9.785,0.011v4.924h-9.785V74.488z M55.418,82.723h9.785v6.809
	c-0.728,0.057-1.46,0.095-2.2,0.095c-2.636,0-5.186-0.36-7.585-1.024V82.723z M42.074,74.472l9.785,0.011v4.939h-9.785V74.472z
	 M44.4,52.283c-0.744-1.023-1.189-2.28-1.189-3.643c0-3.423,2.777-6.201,6.2-6.201c3.424,0,6.2,2.777,6.2,6.201
	c0,1.315-0.412,2.533-1.11,3.537c-1.127-1.549-2.949-2.56-5.011-2.56C47.382,49.617,45.521,50.673,44.4,52.283z M72.519,52.283
	c-0.744-1.023-1.189-2.28-1.189-3.643c0-3.423,2.777-6.201,6.2-6.201c3.424,0,6.2,2.777,6.2,6.201c0,1.315-0.412,2.533-1.11,3.537
	c-1.127-1.549-2.949-2.56-5.011-2.56C75.5,49.617,73.639,50.673,72.519,52.283z"/>
</svg>
